PathFileType	4	(X/Y/Z)	c:/Users/goper/Files/vsCode/490R/osim_files/A06/A06_Fast_04.trc
DataRate	CameraRate	NumFrames	NumMarkers	Units                	OrigDataRate	OrigDataStartFrame	OrigNumFrames
120.00	120.00	4	36	mm	120.0	721	960
                Frame#	Time	LPSIS			LASIS			LTH1			LTH2			LTH3			LTH4			LLFE			LMFE			LSH1			LSH2			LSH3			LSH4			LLMAL			LMMAL			LCAL			LMTP5			LTOE			LMTP1			RPSIS			RASIS			RTH1			RTH2			RTH3			RTH4			RLFE			RMFE			RSH1			RSH2			RSH3			RSH4			RLMAL			RMMAL			RCAL			RMTP1			RTOE			RMTP5		
		X1	Y1	Z1	X2	Y2	Z2	X3	Y3	Z3	X4	Y4	Z4	X5	Y5	Z5	X6	Y6	Z6	X7	Y7	Z7	X8	Y8	Z8	X9	Y9	Z9	X10	Y10	Z10	X11	Y11	Z11	X12	Y12	Z12	X13	Y13	Z13	X14	Y14	Z14	X15	Y15	Z15	X16	Y16	Z16	X17	Y17	Z17	X18	Y18	Z18	X19	Y19	Z19	X20	Y20	Z20	X21	Y21	Z21	X22	Y22	Z22	X23	Y23	Z23	X24	Y24	Z24	X25	Y25	Z25	X26	Y26	Z26	X27	Y27	Z27	X28	Y28	Z28	X29	Y29	Z29	X30	Y30	Z30	X31	Y31	Z31	X32	Y32	Z32	X33	Y33	Z33	X34	Y34	Z34	X35	Y35	Z35	X36	Y36	Z36

721	6.00000	0.00000	0.00000	0.00000	-4495.51514	952.16827	265.55591	-4503.57178	587.76892	298.17224	-4522.07812	548.66425	294.24380	-4562.30811	604.48444	289.41681	-4568.83545	564.46295	285.07849	-4558.52148	483.23688	278.22421	-4563.79688	483.28897	165.38943	-4463.42334	437.19614	289.11282	0.00000	0.00000	0.00000	0.00000	0.00000	0.00000	-4482.23926	366.99136	279.41583	0.00000	0.00000	0.00000	-4306.61230	197.39668	160.52194	-4226.76904	236.36266	189.63187	-4336.85352	87.53464	257.28134	-4380.76221	77.05111	204.75658	-4359.13623	85.32270	165.18123	0.00000	0.00000	0.00000	-4494.75830	973.84912	6.42474	0.00000	0.00000	0.00000	-4387.86621	553.44104	-25.53791	-4443.13379	597.05365	-17.53553	-4441.51318	553.94177	-21.35913	-4414.54346	437.77383	5.99106	0.00000	0.00000	0.00000	0.00000	0.00000	0.00000	0.00000	0.00000	0.00000	-4453.68457	283.03085	34.79196	-4450.58887	232.72220	31.80057	0.00000	0.00000	0.00000	-4344.47656	86.96722	75.34815	-4335.87207	24.89784	13.94014	0.00000	0.00000	0.00000	-4542.56299	65.91414	100.84431	0.00000	0.00000	0.00000
722	6.00833	0.00000	0.00000	0.00000	-4504.02686	953.02863	265.65488	-4517.23096	590.32092	299.88544	-4536.21973	551.54480	295.48636	-4575.35889	608.42645	290.67007	-4582.73779	568.59375	286.40372	-4574.48145	487.04819	279.41986	0.00000	0.00000	0.00000	-4480.69189	437.18527	290.16815	-4459.03467	396.09326	293.66846	0.00000	0.00000	0.00000	-4502.44141	368.53897	280.75021	0.00000	0.00000	0.00000	0.00000	0.00000	0.00000	-4252.99658	225.93571	189.66727	-4370.25244	82.89902	258.44476	0.00000	0.00000	0.00000	-4390.98340	88.78735	168.35901	0.00000	0.00000	0.00000	-4504.00928	974.33661	6.43954	0.00000	0.00000	0.00000	0.00000	0.00000	0.00000	-4449.18555	597.25903	-17.21349	-4447.14062	554.17957	-21.09193	-4418.80273	438.26175	6.23664	0.00000	0.00000	0.00000	0.00000	0.00000	0.00000	0.00000	0.00000	0.00000	-4456.37354	282.85684	35.03683	-4452.67334	232.84021	31.91364	0.00000	0.00000	0.00000	-4344.66406	87.23922	75.46292	-4336.18359	25.11994	14.06185	0.00000	0.00000	0.00000	-4542.73926	65.66270	100.88467	0.00000	0.00000	0.00000
723	6.01667	0.00000	0.00000	0.00000	-4512.59277	953.66083	265.74728	-4530.60547	593.09503	301.25378	-4550.00195	554.31403	296.85880	-4588.00293	612.04779	292.05481	-4596.15332	572.47070	287.75974	-4589.92773	490.57977	280.65723	-4595.03271	490.95816	168.35522	-4497.49023	436.84003	291.33038	0.00000	0.00000	0.00000	0.00000	0.00000	0.00000	0.00000	0.00000	0.00000	-4306.45117	126.41514	156.09383	0.00000	0.00000	0.00000	-4278.73877	214.63429	188.93590	-4399.44141	81.69469	260.26474	0.00000	0.00000	0.00000	-4424.79639	85.51435	169.90692	0.00000	0.00000	0.00000	-4513.19922	974.69934	6.46525	0.00000	0.00000	0.00000	0.00000	0.00000	0.00000	-4455.26367	597.40155	-16.96272	-4452.84033	554.46204	-20.89981	-4423.12207	438.71786	6.40531	0.00000	0.00000	0.00000	0.00000	0.00000	0.00000	0.00000	0.00000	0.00000	0.00000	0.00000	0.00000	-4454.76074	232.98409	32.04375	0.00000	0.00000	0.00000	-4344.82617	87.48990	75.54591	-4336.47363	25.35815	14.21834	0.00000	0.00000	0.00000	-4542.89746	65.41410	100.93571	0.00000	0.00000	0.00000
724	6.02500	0.00000	0.00000	0.00000	-4521.20850	954.06207	265.84918	-4543.62109	595.68140	302.86081	-4563.32520	556.84448	298.34921	-4600.25586	615.34222	293.47910	-4609.17236	575.99127	289.23236	-4604.78516	493.81613	281.96100	-4609.76562	494.26770	169.96631	-4513.80811	436.13620	292.52188	-4496.05127	393.22241	296.01318	0.00000	0.00000	0.00000	0.00000	0.00000	0.00000	0.00000	0.00000	0.00000	0.00000	0.00000	0.00000	0.00000	0.00000	0.00000	-4433.33936	77.73982	262.02399	0.00000	0.00000	0.00000	-4459.12549	82.58822	171.74876	0.00000	0.00000	0.00000	-4522.37402	974.92108	6.56709	0.00000	0.00000	0.00000	0.00000	0.00000	0.00000	-4461.36719	597.48328	-16.72495	-4458.53857	554.59802	-20.72363	-4427.50342	439.20190	6.54702	0.00000	0.00000	0.00000	0.00000	0.00000	0.00000	0.00000	0.00000	0.00000	0.00000	0.00000	0.00000	-4456.86328	233.08467	32.13361	0.00000	0.00000	0.00000	-4345.01416	87.78024	75.57156	-4336.75732	25.55223	14.31299	0.00000	0.00000	0.00000	-4543.04346	65.17039	100.97810	0.00000	0.00000	0.00000
